<?xml version="1.0" encoding="UTF-8" standalone="no"?>
<!-- Created with Inkscape (http://www.inkscape.org/) -->

<svg
   width="388.83319mm"
   height="307.56833mm"
   viewBox="0 0 388.83319 307.56833"
   version="1.1"
   id="svg1"
   xmlns="http://www.w3.org/2000/svg"
   xmlns:svg="http://www.w3.org/2000/svg">
  <defs
     id="defs1" />
  <g
     id="layer1"
     transform="translate(89.164578,5.2916676)">
    <g
       id="g111"
       transform="translate(91.221917,14.0224)">
      <path
         id="path101"
         style="display:inline;opacity:1;fill:#3366cc;fill-opacity:1;stroke-width:0.529167;stroke-dasharray:4, 2, 1, 2;paint-order:stroke fill markers"
         d="m 31.339689,170.91153 -1.822111,11.66131 2.786393,16.99741 -29.3883867,37.30108 88.1889327,26.96683 -48.983574,-73.11957 z" />
      <path
         style="display:inline;fill:#2e3436;fill-opacity:1;stroke-width:0.529167;stroke-dasharray:4, 2, 1, 2;paint-order:stroke fill markers"
         d="m -129.00368,155.24172 v 0 l -51.38282,-32.43313 78.71411,4.373 z"
         id="path102" />
      <path
         id="path103"
         style="display:inline;opacity:1;fill:#2e3436;stroke-width:0.529167;stroke-dasharray:4, 2, 1, 2;paint-order:stroke fill markers"
         d="M 59.399992,-19.314067 33.383492,44.64327 C -32.118657,50.812745 -134.75131,76.764582 -139.20752,187.67485 l 0.8878,-0.57309 c 0.5706,15.6302 0.89756,21.67252 8.95139,29.72635 3.66307,3.66307 7.36044,7.64348 10.61589,11.59774 0.0107,-9e-5 0.0222,0.002 0.0357,0.007 0.10753,-0.0714 0.24217,-0.11493 0.39945,-0.11886 0.22741,-0.006 0.50109,0.07 0.80564,0.2589 0.73188,0.45384 1.52642,0.77522 2.30063,1.14256 0.57328,0.26803 1.14488,0.54301 1.726,0.79375 0.38426,0.059 0.77345,0.0498 1.16065,0.0372 0.3471,-0.0114 0.69483,-0.007 1.0418,-0.0232 0.37608,-0.0618 0.66742,-0.003 1.03818,0.0925 0.20691,0.16887 0.35983,0.19695 0.6165,0.38912 0.38473,0.28212 0.70307,0.63343 1.00045,1.00356 0.28181,0.31308 0.46889,0.68898 0.67025,1.05471 0.31264,0.5306 0.30697,1.05453 0.0868,1.61799 -0.15696,0.29216 -0.35362,0.54526 -0.57154,0.77825 -0.002,0.0254 -0.004,0.051 -0.007,0.077 -0.0922,0.84471 -0.82472,1.17749 -1.29243,1.77973 -0.0302,0.0389 -0.0587,0.0787 -0.0863,0.11938 -0.12577,0.63151 -0.26544,1.26025 -0.35761,1.89859 -0.11643,0.6072 -0.15481,1.21714 -0.16846,1.82883 0.42161,0.90816 0.78962,1.79578 1.02836,2.63136 2.1865,7.65276 10.568258,17.49198 33.890955,19.31407 16.852853,1.31662 31.968091,-3.62159 42.508516,-4.13877 l -0.965316,3.04633 36.8065393,26.23819 32.4326457,-96.20653 49.560799,71.79045 h 80.901001 l -24.7804,-39.72161 H 96.206014 L 69.239185,170.91153 123.902,113.33365 h 50.65375 L 208.44671,77.985421 H 105.68089 L 57.577881,123.53716 85.638184,42.636674 85.593742,42.531771 c 0.875249,-0.05416 1.485209,-0.12735 1.501717,-0.259416 0.364416,-2.915338 0,-0.728638 0,-0.728638 l -1.507918,0.973584 z M -109.86668,233.54543 c 0.002,0.0632 0.004,0.12635 0.0114,0.18914 0.006,0.042 5.2e-4,0.0848 0.004,0.12867 0.0147,0.032 0.0279,0.0653 0.0398,0.10077 0.0339,-0.0427 0.068,-0.0854 0.10129,-0.12712 -0.0151,0.1785 0.0911,0.48215 0.0512,0.0873 -0.0595,-0.13278 -0.13022,-0.25768 -0.20722,-0.37879 z m -3.26026,2.51768 c 0.0961,0.15046 0.15845,0.28954 0.25218,0.43925 0.0363,-0.088 0.0748,-0.17518 0.11265,-0.26252 -0.12137,-0.0596 -0.2475,-0.10844 -0.36483,-0.17673 z" />
      <path
         id="path104"
         style="display:inline;opacity:1;fill:#2e3436;stroke-width:0.529167;stroke-dasharray:4, 2, 1, 2;paint-order:stroke fill markers"
         d="M 59.399992,-19.314067 33.383492,44.64327 C -32.118657,50.812745 -134.75131,76.764582 -139.20752,187.67485 l 0.8878,-0.57309 c 0.5706,15.6302 0.89756,21.67252 8.95139,29.72635 3.66307,3.66307 7.36044,7.64348 10.61589,11.59774 0.0107,-9e-5 0.0222,0.002 0.0357,0.007 0.10753,-0.0714 0.24217,-0.11493 0.39945,-0.11886 0.22741,-0.006 0.50109,0.07 0.80564,0.2589 0.73188,0.45384 1.52642,0.77522 2.30063,1.14256 0.57328,0.26803 1.14488,0.54301 1.726,0.79375 0.38426,0.059 0.77345,0.0498 1.16065,0.0372 0.3471,-0.0114 0.69483,-0.007 1.0418,-0.0232 0.37608,-0.0618 0.66742,-0.003 1.03818,0.0925 0.20691,0.16887 0.35983,0.19695 0.6165,0.38912 0.38473,0.28212 0.70307,0.63343 1.00045,1.00356 0.28181,0.31308 0.46889,0.68898 0.67025,1.05471 0.31264,0.5306 0.30697,1.05453 0.0868,1.61799 -0.15696,0.29216 -0.35362,0.54526 -0.57154,0.77825 -0.002,0.0254 -0.004,0.051 -0.007,0.077 -0.0922,0.84471 -0.82472,1.17749 -1.29243,1.77973 -0.0302,0.0389 -0.0587,0.0787 -0.0863,0.11938 -0.12577,0.63151 -0.26544,1.26025 -0.35761,1.89859 -0.11643,0.6072 -0.15481,1.21714 -0.16846,1.82883 0.42161,0.90816 0.78962,1.79578 1.02836,2.63136 2.1865,7.65276 10.568258,17.49198 33.890955,19.31407 16.852853,1.31662 31.968091,-3.62159 42.508516,-4.13877 l -0.965316,3.04633 36.8065393,26.23819 32.4326457,-96.20653 49.560799,71.79045 h 80.901001 l -24.7804,-39.72161 H 96.206014 L 69.239185,170.91153 123.902,113.33365 h 50.65375 L 208.44671,77.985421 H 105.68089 L 57.577881,123.53716 85.638184,42.636674 85.593742,42.531771 c 0.875249,-0.05416 1.485209,-0.12735 1.501717,-0.259416 0.364416,-2.915338 0,-0.728638 0,-0.728638 l -1.507918,0.973584 z M -109.86668,233.54543 c 0.002,0.0632 0.004,0.12635 0.0114,0.18914 0.006,0.042 5.2e-4,0.0848 0.004,0.12867 0.0147,0.032 0.0279,0.0653 0.0398,0.10077 0.0339,-0.0427 0.068,-0.0854 0.10129,-0.12712 -0.0151,0.1785 0.0911,0.48215 0.0512,0.0873 -0.0595,-0.13278 -0.13022,-0.25768 -0.20722,-0.37879 z m -3.26026,2.51768 c 0.0961,0.15046 0.15845,0.28954 0.25218,0.43925 0.0363,-0.088 0.0748,-0.17518 0.11265,-0.26252 -0.12137,-0.0596 -0.2475,-0.10844 -0.36483,-0.17673 z" />
      <path
         id="path105"
         style="display:none;opacity:1;fill:#3366cc;stroke-width:0.529167;stroke-dasharray:4, 2, 1, 2;paint-order:stroke fill markers"
         d="m 27.331148,35.34823 -86.366821,23.687443 -6.194971,4.737179 10.203512,9.474873 C 0.72869518,49.19619 22.95834,46.645215 34.255273,46.645215 c 11.296933,0 13.119096,-9.474874 13.119096,-9.474874 z m 68.874866,26.967346 -24.7804,41.178884 -15.305525,22.95829 H 77.256266 L 107.86732,94.748222 h 91.83315 L 235.04922,62.315576 Z M -78.34974,68.510547 c 0,0 -72.51877,55.391303 -71.78993,75.069833 0.72883,19.67852 10.56783,34.98391 10.56783,34.98391 24.78037,-63.77301 62.315574,-90.011039 62.315574,-90.011039 z M 69.603503,170.54721 88.188932,235.41354 H 157.0638 l -9.47488,-26.23819 z" />
      <path
         id="path106"
         style="display:inline;opacity:1;fill:#2e3436;stroke-width:0.529167;stroke-dasharray:4, 2, 1, 2;paint-order:stroke fill markers"
         d="M 59.399992,-19.314067 33.383492,44.64327 C -32.118657,50.812745 -134.75131,76.764582 -139.20752,187.67485 l 0.8878,-0.57309 c 0.5706,15.6302 0.89756,21.67252 8.95139,29.72635 3.66307,3.66307 7.36044,7.64348 10.61589,11.59774 0.0107,-9e-5 0.0222,0.002 0.0357,0.007 0.10753,-0.0714 0.24217,-0.11493 0.39945,-0.11886 0.22741,-0.006 0.50109,0.07 0.80564,0.2589 0.73188,0.45384 1.52642,0.77522 2.30063,1.14256 0.57328,0.26803 1.14488,0.54301 1.726,0.79375 0.38426,0.059 0.77345,0.0498 1.16065,0.0372 0.3471,-0.0114 0.69483,-0.007 1.0418,-0.0232 0.37608,-0.0618 0.66742,-0.003 1.03818,0.0925 0.20691,0.16887 0.35983,0.19695 0.6165,0.38912 0.38473,0.28212 0.70307,0.63343 1.00045,1.00356 0.28181,0.31308 0.46889,0.68898 0.67025,1.05471 0.31264,0.5306 0.30697,1.05453 0.0868,1.61799 -0.15696,0.29216 -0.35362,0.54526 -0.57154,0.77825 -0.002,0.0254 -0.004,0.051 -0.007,0.077 -0.0922,0.84471 -0.82472,1.17749 -1.29243,1.77973 -0.0302,0.0389 -0.0587,0.0787 -0.0863,0.11938 -0.12577,0.63151 -0.26544,1.26025 -0.35761,1.89859 -0.11643,0.6072 -0.15481,1.21714 -0.16846,1.82883 0.42161,0.90816 0.78962,1.79578 1.02836,2.63136 2.1865,7.65276 10.568258,17.49198 33.890955,19.31407 16.852853,1.31662 31.968091,-3.62159 42.508516,-4.13877 l -0.965316,3.04633 36.8065393,26.23819 32.4326457,-96.20653 49.560799,71.79045 h 80.901001 l -24.7804,-39.72161 H 96.206014 L 69.239185,170.91153 123.902,113.33365 h 50.65375 L 208.44671,77.985421 H 105.68089 L 57.577881,123.53716 85.638184,42.636674 85.593742,42.531771 c 0.875249,-0.05416 1.485209,-0.12735 1.501717,-0.259416 0.364416,-2.915338 0,-0.728638 0,-0.728638 l -1.507918,0.973584 z M -109.86668,233.54543 c 0.002,0.0632 0.004,0.12635 0.0114,0.18914 0.006,0.042 5.2e-4,0.0848 0.004,0.12867 0.0147,0.032 0.0279,0.0653 0.0398,0.10077 0.0339,-0.0427 0.068,-0.0854 0.10129,-0.12712 -0.0151,0.1785 0.0911,0.48215 0.0512,0.0873 -0.0595,-0.13278 -0.13022,-0.25768 -0.20722,-0.37879 z m -3.26026,2.51768 c 0.0961,0.15046 0.15845,0.28954 0.25218,0.43925 0.0363,-0.088 0.0748,-0.17518 0.11265,-0.26252 -0.12137,-0.0596 -0.2475,-0.10844 -0.36483,-0.17673 z" />
      <path
         id="path107"
         style="display:inline;opacity:1;fill:#3366cc;stroke-width:0.529167;stroke-dasharray:4, 2, 1, 2;paint-order:stroke fill markers"
         d="m 38.40024,36.353853 c -0.0066,0.01256 -0.01436,0.02639 -0.01757,0.03566 -0.02454,0.07088 -0.0508,0.141055 -0.077,0.211357 0.0027,0.0083 0.0053,0.0166 0.0072,0.02532 0.0066,0.02994 0.0078,0.05974 0.0072,0.0894 0.07378,-0.125757 0.08917,-0.169295 0.173116,-0.317293 0.0043,-0.01156 0.0086,-0.02306 0.01292,-0.03462 z m 4.187341,5.11235 c -0.007,0.01633 -0.01412,0.03236 -0.02119,0.04858 0.0046,0.0046 0.0094,0.0088 0.01395,0.01344 0.0065,-0.02144 0.0056,-0.04133 0.0072,-0.06201 z m -9.03304,2.756937 -0.132292,0.325045 c 0.02085,-0.02428 0.04167,-0.04859 0.06253,-0.07286 0.0037,-0.01862 0.0064,-0.03665 0.01188,-0.05633 0.01824,-0.06558 0.03907,-0.130433 0.05788,-0.195854 z m -0.218075,0.425297 c -27.9382313,2.634701 -62.607545,8.899752 -93.546228,23.787179 l 5.18263,4.812109 c 51.9327773,-22.40238 74.550465,-26.08049 86.559574,-26.486755 0.597793,-0.706743 1.200501,-1.410047 1.804024,-2.112533 z m 6.829558,0.662492 c -0.0082,0.01345 -0.01644,0.02689 -0.02481,0.04031 0.01078,-0.01265 0.02094,-0.02588 0.03256,-0.03772 -0.0029,-4.52e-4 -0.0049,-0.0021 -0.0078,-0.0026 z m 65.514866,32.674492 -46.78526,44.303759 -2.775541,4.16357 H 77.256266 L 107.86732,94.748222 h 84.5075 l 16.07189,-16.762801 z m -183.502496,0.202055 c -30.797614,19.552948 -55.067584,49.930164 -60.397344,97.119134 24.76986,-61.34601 60.962684,-86.753359 60.962684,-86.753359 z m 148.138761,94.851574 17.871777,62.37449 h 59.887818 l -7.04763,-11.29699 H 96.206014 Z m -102.414937,90.25599 35.0128495,24.9592 6.0001506,-17.79788 z" />
      <path
         id="path108"
         style="display:inline;opacity:1;fill:#ffffff;stroke-width:0.529167;stroke-dasharray:4, 2, 1, 2;paint-order:stroke fill markers"
         d="m -48.3309,133.42235 c -1.15e-4,1e-5 -10e-4,5e-4 -10e-4,5.1e-4 0.0091,0.0166 0.01883,0.033 0.02791,0.0496 0.02903,-0.0379 0.02453,-0.0558 -0.02687,-0.0501 z m -2.786393,1.08262 c -2.230057,0.90595 -5.99956,2.44212 -13.749032,5.43119 -25.509201,9.83927 -24.415666,39.3571 -31.704008,86.0025 0,0 -0.723615,0.29941 -1.030945,0.42323 0.144603,0.16552 0.310227,0.31761 0.391191,0.51884 0.06603,0.16412 -0.517675,0.53807 -0.607715,0.64078 -0.135977,0.10002 -0.276491,0.19297 -0.420129,0.28112 0.279301,0.39253 0.03077,0.51974 -0.784449,0.77515 0.372609,-0.07 0.0863,0.0187 -0.0015,0.0181 -0.27447,-3.2e-4 -0.526919,0.12888 -0.786515,0.20308 -0.489685,0.17361 -0.980065,0.3024 -1.486215,0.41497 -0.65771,0.23179 -1.31042,0.46763 -1.97352,0.68316 -0.97476,0.3843 -1.98646,0.66 -2.96623,1.02939 -0.44424,0.17902 -0.89245,0.34643 -1.34204,0.51005 -0.44935,0.43324 -0.60877,0.80551 -0.28887,1.06143 1.82208,1.45767 -3.27975,5.46668 7.65277,0.36484 5.404439,-2.52209 12.318214,-1.66134 18.505326,-1.28933 0.724806,-0.24232 1.462712,-0.44607 2.2071,-0.61805 1.377315,-0.35814 2.786051,-0.56976 4.174939,-0.87281 0.965636,-0.16935 1.926048,-0.36489 2.876827,-0.6041 0.434595,-0.28598 0.865071,-0.57852 1.291911,-0.8754 0.694664,-0.4713 1.39076,-0.9464 2.024166,-1.49913 0.03106,-0.0274 0.06596,-0.0489 0.09767,-0.0755 0.01731,-0.0205 0.03016,-0.0404 0.04858,-0.061 0.901223,-1.00684 1.831203,-1.98693 2.761072,-2.96726 1.025214,-1.13933 2.080274,-2.24646 3.188436,-3.30522 0.861993,-0.80115 1.695043,-1.63142 2.525427,-2.46497 0.792885,-0.82383 1.717761,-1.50441 2.673222,-2.12597 0.838585,-0.53807 1.677858,-1.07619 2.541447,-1.57355 0.178971,-0.10091 0.360903,-0.19547 0.543119,-0.28938 0.534719,-0.40045 1.090728,-0.77577 1.619022,-1.18236 1.136623,-0.88201 2.273817,-1.76515 3.372404,-2.69441 0.454897,-0.3955 0.916285,-0.78288 1.377177,-1.17047 2.566014,-8.45715 9.193048,-31.44949 8.300786,-41.5618 -1.051073,-11.91214 -7.142318,-28.16397 -9.230961,-31.34641 -0.198213,-0.15965 -0.380898,-0.33733 -0.554489,-0.52814 -0.403092,-0.43056 -0.811767,-0.8542 -1.245918,-1.25263 z" />
      <path
         id="path109"
         style="opacity:1;fill:#3366cc;fill-opacity:1;stroke-width:0.529167;stroke-dasharray:4, 2, 1, 2;paint-order:stroke fill markers"
         d="m -48.3309,133.42235 c -1.15e-4,1e-5 -10e-4,5e-4 -10e-4,5.1e-4 0.0091,0.0166 0.01883,0.033 0.02791,0.0496 0.02903,-0.0379 0.02453,-0.0558 -0.02687,-0.0501 z m -2.786393,1.08262 c -2.230057,0.90595 -5.99956,2.44212 -13.749032,5.43119 -17.197434,6.6333 -22.297384,22.24585 -26.032519,45.98531 11.601104,-27.64002 12.834323,-32.2822 23.117452,-36.32802 11.114725,-4.37301 12.20756,-4.19111 14.94069,0.1819 2.733127,4.37301 9.110665,15.6699 9.657291,19.31407 0.315113,2.10076 -0.08181,13.25855 -0.417028,22.64616 2.165882,-8.88267 4.011213,-18.47417 3.514514,-24.10343 -1.051073,-11.91214 -7.142318,-28.16397 -9.230961,-31.34641 -0.198213,-0.15965 -0.380898,-0.33733 -0.554489,-0.52814 -0.403092,-0.43056 -0.811767,-0.8542 -1.245918,-1.25263 z m -41.568006,63.81677 c -0.562802,4.15567 -1.131476,8.38435 -1.754931,12.93565 7.800076,14.79278 10.153542,16.76638 11.170894,15.40991 1.09325,-1.45767 1.45752,-10.56795 -3.279903,-18.76733 -2.804526,-4.85399 -4.519861,-7.82307 -6.13606,-9.57823 z" />
      <path
         style="fill:#2e3436;fill-opacity:1;stroke-width:0.529167;stroke-dasharray:4, 2, 1, 2;paint-order:stroke fill markers"
         d="m -92.561962,104.22331 v 0 L -47.738649,-0.36441718 -43.73006,77.620859 Z"
         id="path110" />
      <path
         id="path111"
         style="fill:#3366cc;fill-opacity:1;stroke-width:0.529167;stroke-dasharray:4, 2, 1, 2;paint-order:stroke fill markers"
         d="m 59.399992,-19.314067 -26.0165,63.957337 c -0.492204,0.04636 -1.028632,0.120361 -1.524971,0.168982 L 18.949748,86.002502 28.78894,115.15576 68.236145,1.5487427 Z" />
    </g>
  </g>
</svg>
